<mxfile host="app.diagrams.net" modified="2021-10-17T15:49:04.603Z" agent="5.0 (Windows NT 10.0; Win64; x64) AppleWebKit/537.36 (KHTML, like Gecko) Chrome/94.0.4606.81 Safari/537.36 Edg/94.0.992.50" etag="fc2ctaFsfCuxzwAHrHGa" version="15.5.4" type="github">
  <diagram id="C5RBs43oDa-KdzZeNtuy" name="Page-1">
    <mxGraphModel dx="1422" dy="794" grid="0" gridSize="10" guides="1" tooltips="1" connect="1" arrows="1" fold="1" page="1" pageScale="1" pageWidth="827" pageHeight="1169" math="0" shadow="0">
      <root>
        <mxCell id="WIyWlLk6GJQsqaUBKTNV-0" />
        <mxCell id="WIyWlLk6GJQsqaUBKTNV-1" parent="WIyWlLk6GJQsqaUBKTNV-0" />
        <mxCell id="k_S_YM8PhJyykxEHG202-45" value="네비게이션" style="swimlane;fontStyle=1;align=center;verticalAlign=top;childLayout=stackLayout;horizontal=1;startSize=26;horizontalStack=0;resizeParent=1;resizeParentMax=0;resizeLast=0;collapsible=1;marginBottom=0;" parent="WIyWlLk6GJQsqaUBKTNV-1" vertex="1">
          <mxGeometry x="266" y="24.5" width="160" height="85" as="geometry" />
        </mxCell>
        <mxCell id="k_S_YM8PhJyykxEHG202-47" value="" style="line;strokeWidth=1;fillColor=none;align=left;verticalAlign=middle;spacingTop=-1;spacingLeft=3;spacingRight=3;rotatable=0;labelPosition=right;points=[];portConstraint=eastwest;" parent="k_S_YM8PhJyykxEHG202-45" vertex="1">
          <mxGeometry y="26" width="160" height="8" as="geometry" />
        </mxCell>
        <mxCell id="k_S_YM8PhJyykxEHG202-48" value="StackScreenHome()&#xa;StackScreenSetting()" style="text;strokeColor=none;fillColor=none;align=left;verticalAlign=middle;spacingLeft=4;spacingRight=4;overflow=hidden;rotatable=0;points=[[0,0.5],[1,0.5]];portConstraint=eastwest;" parent="k_S_YM8PhJyykxEHG202-45" vertex="1">
          <mxGeometry y="34" width="160" height="51" as="geometry" />
        </mxCell>
        <mxCell id="k_S_YM8PhJyykxEHG202-49" value="앱" style="swimlane;fontStyle=1;align=center;verticalAlign=middle;childLayout=stackLayout;horizontal=1;startSize=26;horizontalStack=0;resizeParent=1;resizeParentMax=0;resizeLast=0;collapsible=1;marginBottom=0;" parent="WIyWlLk6GJQsqaUBKTNV-1" vertex="1">
          <mxGeometry x="32" y="27" width="160" height="73" as="geometry" />
        </mxCell>
        <mxCell id="k_S_YM8PhJyykxEHG202-51" value="" style="line;strokeWidth=1;fillColor=none;align=left;verticalAlign=middle;spacingTop=-1;spacingLeft=3;spacingRight=3;rotatable=0;labelPosition=right;points=[];portConstraint=eastwest;" parent="k_S_YM8PhJyykxEHG202-49" vertex="1">
          <mxGeometry y="26" width="160" height="8" as="geometry" />
        </mxCell>
        <mxCell id="k_S_YM8PhJyykxEHG202-52" value="StackNavigation()&#xa;Oneconnect()" style="text;strokeColor=none;fillColor=none;align=left;verticalAlign=top;spacingLeft=4;spacingRight=4;overflow=hidden;rotatable=0;points=[[0,0.5],[1,0.5]];portConstraint=eastwest;" parent="k_S_YM8PhJyykxEHG202-49" vertex="1">
          <mxGeometry y="34" width="160" height="39" as="geometry" />
        </mxCell>
        <mxCell id="k_S_YM8PhJyykxEHG202-53" value="세팅" style="swimlane;fontStyle=1;align=center;verticalAlign=top;childLayout=stackLayout;horizontal=1;startSize=26;horizontalStack=0;resizeParent=1;resizeParentMax=0;resizeLast=0;collapsible=1;marginBottom=0;" parent="WIyWlLk6GJQsqaUBKTNV-1" vertex="1">
          <mxGeometry x="393" y="179" width="99" height="74" as="geometry" />
        </mxCell>
        <mxCell id="k_S_YM8PhJyykxEHG202-55" value="" style="line;strokeWidth=1;fillColor=none;align=left;verticalAlign=middle;spacingTop=-1;spacingLeft=3;spacingRight=3;rotatable=0;labelPosition=right;points=[];portConstraint=eastwest;" parent="k_S_YM8PhJyykxEHG202-53" vertex="1">
          <mxGeometry y="26" width="99" height="8" as="geometry" />
        </mxCell>
        <mxCell id="k_S_YM8PhJyykxEHG202-56" value="onoff()" style="text;strokeColor=none;fillColor=none;align=left;verticalAlign=middle;spacingLeft=4;spacingRight=4;overflow=hidden;rotatable=0;points=[[0,0.5],[1,0.5]];portConstraint=eastwest;" parent="k_S_YM8PhJyykxEHG202-53" vertex="1">
          <mxGeometry y="34" width="99" height="40" as="geometry" />
        </mxCell>
        <mxCell id="k_S_YM8PhJyykxEHG202-57" value="원시그널" style="swimlane;fontStyle=1;align=center;verticalAlign=top;childLayout=stackLayout;horizontal=1;startSize=26;horizontalStack=0;resizeParent=1;resizeParentMax=0;resizeLast=0;collapsible=1;marginBottom=0;" parent="WIyWlLk6GJQsqaUBKTNV-1" vertex="1">
          <mxGeometry x="56" y="256" width="127" height="107" as="geometry" />
        </mxCell>
        <mxCell id="k_S_YM8PhJyykxEHG202-58" value="+token:Sting" style="text;strokeColor=none;fillColor=none;align=left;verticalAlign=middle;spacingLeft=4;spacingRight=4;overflow=hidden;rotatable=0;points=[[0,0.5],[1,0.5]];portConstraint=eastwest;" parent="k_S_YM8PhJyykxEHG202-57" vertex="1">
          <mxGeometry y="26" width="127" height="27" as="geometry" />
        </mxCell>
        <mxCell id="k_S_YM8PhJyykxEHG202-59" value="" style="line;strokeWidth=1;fillColor=none;align=left;verticalAlign=middle;spacingTop=-1;spacingLeft=3;spacingRight=3;rotatable=0;labelPosition=right;points=[];portConstraint=eastwest;" parent="k_S_YM8PhJyykxEHG202-57" vertex="1">
          <mxGeometry y="53" width="127" height="8" as="geometry" />
        </mxCell>
        <mxCell id="k_S_YM8PhJyykxEHG202-60" value="Storeonofftoken()&#xa;Psuhmaseege()" style="text;strokeColor=none;fillColor=none;align=left;verticalAlign=middle;spacingLeft=4;spacingRight=4;overflow=hidden;rotatable=0;points=[[0,0.5],[1,0.5]];portConstraint=eastwest;" parent="k_S_YM8PhJyykxEHG202-57" vertex="1">
          <mxGeometry y="61" width="127" height="46" as="geometry" />
        </mxCell>
        <mxCell id="k_S_YM8PhJyykxEHG202-61" value="웹크롤러" style="swimlane;fontStyle=1;align=center;verticalAlign=top;childLayout=stackLayout;horizontal=1;startSize=26;horizontalStack=0;resizeParent=1;resizeParentMax=0;resizeLast=0;collapsible=1;marginBottom=0;" parent="WIyWlLk6GJQsqaUBKTNV-1" vertex="1">
          <mxGeometry x="39.5" y="605" width="160" height="81" as="geometry" />
        </mxCell>
        <mxCell id="k_S_YM8PhJyykxEHG202-62" value="+url:String" style="text;strokeColor=none;fillColor=none;align=left;verticalAlign=top;spacingLeft=4;spacingRight=4;overflow=hidden;rotatable=0;points=[[0,0.5],[1,0.5]];portConstraint=eastwest;" parent="k_S_YM8PhJyykxEHG202-61" vertex="1">
          <mxGeometry y="26" width="160" height="26" as="geometry" />
        </mxCell>
        <mxCell id="k_S_YM8PhJyykxEHG202-63" value="" style="line;strokeWidth=1;fillColor=none;align=left;verticalAlign=middle;spacingTop=-1;spacingLeft=3;spacingRight=3;rotatable=0;labelPosition=right;points=[];portConstraint=eastwest;" parent="k_S_YM8PhJyykxEHG202-61" vertex="1">
          <mxGeometry y="52" width="160" height="8" as="geometry" />
        </mxCell>
        <mxCell id="k_S_YM8PhJyykxEHG202-64" value="SearchURL()&#xa;" style="text;strokeColor=none;fillColor=none;align=left;verticalAlign=middle;spacingLeft=4;spacingRight=4;overflow=hidden;rotatable=0;points=[[0,0.5],[1,0.5]];portConstraint=eastwest;" parent="k_S_YM8PhJyykxEHG202-61" vertex="1">
          <mxGeometry y="60" width="160" height="21" as="geometry" />
        </mxCell>
        <mxCell id="k_S_YM8PhJyykxEHG202-65" value="서버" style="swimlane;fontStyle=1;align=center;verticalAlign=top;childLayout=stackLayout;horizontal=1;startSize=26;horizontalStack=0;resizeParent=1;resizeParentMax=0;resizeLast=0;collapsible=1;marginBottom=0;" parent="WIyWlLk6GJQsqaUBKTNV-1" vertex="1">
          <mxGeometry x="57.63" y="440" width="123.75" height="86" as="geometry" />
        </mxCell>
        <mxCell id="k_S_YM8PhJyykxEHG202-66" value="+url:String" style="text;strokeColor=none;fillColor=none;align=left;verticalAlign=top;spacingLeft=4;spacingRight=4;overflow=hidden;rotatable=0;points=[[0,0.5],[1,0.5]];portConstraint=eastwest;" parent="k_S_YM8PhJyykxEHG202-65" vertex="1">
          <mxGeometry y="26" width="123.75" height="26" as="geometry" />
        </mxCell>
        <mxCell id="k_S_YM8PhJyykxEHG202-67" value="" style="line;strokeWidth=1;fillColor=none;align=left;verticalAlign=middle;spacingTop=-1;spacingLeft=3;spacingRight=3;rotatable=0;labelPosition=right;points=[];portConstraint=eastwest;" parent="k_S_YM8PhJyykxEHG202-65" vertex="1">
          <mxGeometry y="52" width="123.75" height="8" as="geometry" />
        </mxCell>
        <mxCell id="k_S_YM8PhJyykxEHG202-68" value="CompareURL()" style="text;strokeColor=none;fillColor=none;align=left;verticalAlign=top;spacingLeft=4;spacingRight=4;overflow=hidden;rotatable=0;points=[[0,0.5],[1,0.5]];portConstraint=eastwest;" parent="k_S_YM8PhJyykxEHG202-65" vertex="1">
          <mxGeometry y="60" width="123.75" height="26" as="geometry" />
        </mxCell>
        <mxCell id="k_S_YM8PhJyykxEHG202-69" value="파이어 베이스" style="swimlane;fontStyle=1;align=center;verticalAlign=top;childLayout=stackLayout;horizontal=1;startSize=26;horizontalStack=0;resizeParent=1;resizeParentMax=0;resizeLast=0;collapsible=1;marginBottom=0;" parent="WIyWlLk6GJQsqaUBKTNV-1" vertex="1">
          <mxGeometry x="287" y="372" width="160" height="184" as="geometry" />
        </mxCell>
        <mxCell id="k_S_YM8PhJyykxEHG202-70" value="+authDomain: String&#xa;+databaseURL: String&#xa;+projectId: String&#xa;+storageBucket: String&#xa;+messagingSenderId: String,&#xa;+ appId: String&#xa;" style="text;strokeColor=none;fillColor=none;align=left;verticalAlign=top;spacingLeft=4;spacingRight=4;overflow=hidden;rotatable=0;points=[[0,0.5],[1,0.5]];portConstraint=eastwest;" parent="k_S_YM8PhJyykxEHG202-69" vertex="1">
          <mxGeometry y="26" width="160" height="107" as="geometry" />
        </mxCell>
        <mxCell id="k_S_YM8PhJyykxEHG202-71" value="" style="line;strokeWidth=1;fillColor=none;align=left;verticalAlign=middle;spacingTop=-1;spacingLeft=3;spacingRight=3;rotatable=0;labelPosition=right;points=[];portConstraint=eastwest;" parent="k_S_YM8PhJyykxEHG202-69" vertex="1">
          <mxGeometry y="133" width="160" height="8" as="geometry" />
        </mxCell>
        <mxCell id="k_S_YM8PhJyykxEHG202-72" value="Storeonoff()&#xa;StoreURL()" style="text;strokeColor=none;fillColor=none;align=left;verticalAlign=top;spacingLeft=4;spacingRight=4;overflow=hidden;rotatable=0;points=[[0,0.5],[1,0.5]];portConstraint=eastwest;" parent="k_S_YM8PhJyykxEHG202-69" vertex="1">
          <mxGeometry y="141" width="160" height="43" as="geometry" />
        </mxCell>
        <mxCell id="k_S_YM8PhJyykxEHG202-74" value="" style="endArrow=none;html=1;rounded=0;" parent="WIyWlLk6GJQsqaUBKTNV-1" edge="1">
          <mxGeometry width="50" height="50" relative="1" as="geometry">
            <mxPoint x="414" y="371" as="sourcePoint" />
            <mxPoint x="414" y="253" as="targetPoint" />
          </mxGeometry>
        </mxCell>
        <mxCell id="k_S_YM8PhJyykxEHG202-75" style="rounded=0;orthogonalLoop=1;jettySize=auto;html=1;entryX=0;entryY=0.5;entryDx=0;entryDy=0;endArrow=none;endFill=0;startArrow=diamondThin;startFill=0;" parent="WIyWlLk6GJQsqaUBKTNV-1" edge="1">
          <mxGeometry relative="1" as="geometry">
            <mxPoint x="194" y="64" as="sourcePoint" />
            <mxPoint x="266" y="63.5" as="targetPoint" />
          </mxGeometry>
        </mxCell>
        <mxCell id="k_S_YM8PhJyykxEHG202-76" value="" style="endArrow=diamondThin;html=1;rounded=0;exitX=0.62;exitY=-0.021;exitDx=0;exitDy=0;exitPerimeter=0;endFill=0;" parent="WIyWlLk6GJQsqaUBKTNV-1" source="k_S_YM8PhJyykxEHG202-41" edge="1">
          <mxGeometry width="50" height="50" relative="1" as="geometry">
            <mxPoint x="263" y="160.5" as="sourcePoint" />
            <mxPoint x="304" y="111" as="targetPoint" />
          </mxGeometry>
        </mxCell>
        <mxCell id="k_S_YM8PhJyykxEHG202-77" value="" style="endArrow=diamondThin;html=1;rounded=0;endFill=0;" parent="WIyWlLk6GJQsqaUBKTNV-1" edge="1">
          <mxGeometry width="50" height="50" relative="1" as="geometry">
            <mxPoint x="413" y="179" as="sourcePoint" />
            <mxPoint x="413" y="112" as="targetPoint" />
          </mxGeometry>
        </mxCell>
        <mxCell id="k_S_YM8PhJyykxEHG202-78" value="" style="endArrow=none;html=1;rounded=0;exitX=1;exitY=0.25;exitDx=0;exitDy=0;" parent="WIyWlLk6GJQsqaUBKTNV-1" source="k_S_YM8PhJyykxEHG202-65" edge="1">
          <mxGeometry width="50" height="50" relative="1" as="geometry">
            <mxPoint x="237" y="369" as="sourcePoint" />
            <mxPoint x="287" y="462" as="targetPoint" />
          </mxGeometry>
        </mxCell>
        <mxCell id="k_S_YM8PhJyykxEHG202-79" value="" style="endArrow=open;html=1;rounded=0;exitX=1;exitY=0.5;exitDx=0;exitDy=0;dashed=1;endFill=0;" parent="WIyWlLk6GJQsqaUBKTNV-1" edge="1" source="k_S_YM8PhJyykxEHG202-58">
          <mxGeometry width="50" height="50" relative="1" as="geometry">
            <mxPoint x="183" y="286" as="sourcePoint" />
            <mxPoint x="287" y="391" as="targetPoint" />
          </mxGeometry>
        </mxCell>
        <mxCell id="k_S_YM8PhJyykxEHG202-83" value="" style="endArrow=diamondThin;html=1;rounded=0;entryX=0.531;entryY=1.038;entryDx=0;entryDy=0;entryPerimeter=0;startArrow=none;startFill=0;endFill=0;" parent="WIyWlLk6GJQsqaUBKTNV-1" source="k_S_YM8PhJyykxEHG202-57" target="k_S_YM8PhJyykxEHG202-52" edge="1">
          <mxGeometry width="50" height="50" relative="1" as="geometry">
            <mxPoint x="60" y="157" as="sourcePoint" />
            <mxPoint x="115" y="110" as="targetPoint" />
          </mxGeometry>
        </mxCell>
        <mxCell id="k_S_YM8PhJyykxEHG202-41" value="홈" style="swimlane;fontStyle=1;align=center;verticalAlign=top;childLayout=stackLayout;horizontal=1;startSize=26;horizontalStack=0;resizeParent=1;resizeParentMax=0;resizeLast=0;collapsible=1;marginBottom=0;" parent="WIyWlLk6GJQsqaUBKTNV-1" vertex="1">
          <mxGeometry x="230.75" y="181" width="119" height="79" as="geometry" />
        </mxCell>
        <mxCell id="k_S_YM8PhJyykxEHG202-43" value="" style="line;strokeWidth=1;fillColor=none;align=left;verticalAlign=middle;spacingTop=-1;spacingLeft=3;spacingRight=3;rotatable=0;labelPosition=right;points=[];portConstraint=eastwest;" parent="k_S_YM8PhJyykxEHG202-41" vertex="1">
          <mxGeometry y="26" width="119" height="8" as="geometry" />
        </mxCell>
        <mxCell id="k_S_YM8PhJyykxEHG202-44" value="Weblink()&#xa;Linkconnect()&#xa;MovieSetting()" style="text;strokeColor=none;fillColor=none;align=left;verticalAlign=middle;spacingLeft=4;spacingRight=4;overflow=hidden;rotatable=0;points=[[0,0.5],[1,0.5]];portConstraint=eastwest;" parent="k_S_YM8PhJyykxEHG202-41" vertex="1">
          <mxGeometry y="34" width="119" height="45" as="geometry" />
        </mxCell>
        <mxCell id="Oma7PS_6oEZFAUc4YZXa-0" value="" style="endArrow=none;html=1;rounded=0;" edge="1" parent="WIyWlLk6GJQsqaUBKTNV-1">
          <mxGeometry width="50" height="50" relative="1" as="geometry">
            <mxPoint x="309" y="373" as="sourcePoint" />
            <mxPoint x="309" y="261" as="targetPoint" />
          </mxGeometry>
        </mxCell>
        <mxCell id="Oma7PS_6oEZFAUc4YZXa-1" value="" style="endArrow=diamondThin;html=1;rounded=0;entryX=0.496;entryY=1.077;entryDx=0;entryDy=0;entryPerimeter=0;exitX=0.5;exitY=0;exitDx=0;exitDy=0;startArrow=none;startFill=0;endFill=0;" edge="1" parent="WIyWlLk6GJQsqaUBKTNV-1" source="k_S_YM8PhJyykxEHG202-61" target="k_S_YM8PhJyykxEHG202-68">
          <mxGeometry width="50" height="50" relative="1" as="geometry">
            <mxPoint x="594" y="345" as="sourcePoint" />
            <mxPoint x="644" y="295" as="targetPoint" />
          </mxGeometry>
        </mxCell>
        <mxCell id="Oma7PS_6oEZFAUc4YZXa-2" value="" style="endArrow=none;html=1;rounded=0;dashed=1;endFill=0;startArrow=open;startFill=0;entryX=0.25;entryY=0;entryDx=0;entryDy=0;" edge="1" parent="WIyWlLk6GJQsqaUBKTNV-1" target="Oma7PS_6oEZFAUc4YZXa-9">
          <mxGeometry width="50" height="50" relative="1" as="geometry">
            <mxPoint x="114" y="439" as="sourcePoint" />
            <mxPoint x="120" y="364" as="targetPoint" />
          </mxGeometry>
        </mxCell>
        <mxCell id="Oma7PS_6oEZFAUc4YZXa-5" value="" style="endArrow=none;html=1;rounded=0;entryX=0.009;entryY=0.5;entryDx=0;entryDy=0;entryPerimeter=0;" edge="1" parent="WIyWlLk6GJQsqaUBKTNV-1" target="k_S_YM8PhJyykxEHG202-55">
          <mxGeometry width="50" height="50" relative="1" as="geometry">
            <mxPoint x="349.75" y="209" as="sourcePoint" />
            <mxPoint x="390" y="209" as="targetPoint" />
          </mxGeometry>
        </mxCell>
        <mxCell id="Oma7PS_6oEZFAUc4YZXa-6" value="1" style="text;html=1;strokeColor=none;fillColor=none;align=center;verticalAlign=middle;whiteSpace=wrap;rounded=0;" vertex="1" parent="WIyWlLk6GJQsqaUBKTNV-1">
          <mxGeometry x="80" y="230" width="60" height="30" as="geometry" />
        </mxCell>
        <mxCell id="Oma7PS_6oEZFAUc4YZXa-7" value="*" style="text;html=1;strokeColor=none;fillColor=none;align=center;verticalAlign=middle;whiteSpace=wrap;rounded=0;" vertex="1" parent="WIyWlLk6GJQsqaUBKTNV-1">
          <mxGeometry x="82" y="94" width="60" height="30" as="geometry" />
        </mxCell>
        <mxCell id="Oma7PS_6oEZFAUc4YZXa-8" value="1" style="text;html=1;strokeColor=none;fillColor=none;align=center;verticalAlign=middle;whiteSpace=wrap;rounded=0;" vertex="1" parent="WIyWlLk6GJQsqaUBKTNV-1">
          <mxGeometry x="248" y="437" width="60" height="30" as="geometry" />
        </mxCell>
        <mxCell id="Oma7PS_6oEZFAUc4YZXa-9" value="1" style="text;html=1;strokeColor=none;fillColor=none;align=center;verticalAlign=middle;whiteSpace=wrap;rounded=0;" vertex="1" parent="WIyWlLk6GJQsqaUBKTNV-1">
          <mxGeometry x="99" y="359" width="60" height="30" as="geometry" />
        </mxCell>
        <mxCell id="Oma7PS_6oEZFAUc4YZXa-11" value="1" style="text;html=1;strokeColor=none;fillColor=none;align=center;verticalAlign=middle;whiteSpace=wrap;rounded=0;" vertex="1" parent="WIyWlLk6GJQsqaUBKTNV-1">
          <mxGeometry x="169" y="59" width="60" height="30" as="geometry" />
        </mxCell>
        <mxCell id="Oma7PS_6oEZFAUc4YZXa-13" value="1" style="text;html=1;strokeColor=none;fillColor=none;align=center;verticalAlign=middle;whiteSpace=wrap;rounded=0;" vertex="1" parent="WIyWlLk6GJQsqaUBKTNV-1">
          <mxGeometry x="164" y="437" width="60" height="30" as="geometry" />
        </mxCell>
        <mxCell id="Oma7PS_6oEZFAUc4YZXa-14" value="1" style="text;html=1;strokeColor=none;fillColor=none;align=center;verticalAlign=middle;whiteSpace=wrap;rounded=0;" vertex="1" parent="WIyWlLk6GJQsqaUBKTNV-1">
          <mxGeometry x="98" y="579" width="60" height="30" as="geometry" />
        </mxCell>
        <mxCell id="Oma7PS_6oEZFAUc4YZXa-15" value="1" style="text;html=1;strokeColor=none;fillColor=none;align=center;verticalAlign=middle;whiteSpace=wrap;rounded=0;" vertex="1" parent="WIyWlLk6GJQsqaUBKTNV-1">
          <mxGeometry x="98" y="413" width="60" height="30" as="geometry" />
        </mxCell>
        <mxCell id="Oma7PS_6oEZFAUc4YZXa-17" value="1" style="text;html=1;strokeColor=none;fillColor=none;align=center;verticalAlign=middle;whiteSpace=wrap;rounded=0;" vertex="1" parent="WIyWlLk6GJQsqaUBKTNV-1">
          <mxGeometry x="391" y="253" width="60" height="30" as="geometry" />
        </mxCell>
        <mxCell id="Oma7PS_6oEZFAUc4YZXa-18" value="1" style="text;html=1;strokeColor=none;fillColor=none;align=center;verticalAlign=middle;whiteSpace=wrap;rounded=0;" vertex="1" parent="WIyWlLk6GJQsqaUBKTNV-1">
          <mxGeometry x="164" y="273" width="60" height="30" as="geometry" />
        </mxCell>
        <mxCell id="Oma7PS_6oEZFAUc4YZXa-19" value="1" style="text;html=1;strokeColor=none;fillColor=none;align=center;verticalAlign=middle;whiteSpace=wrap;rounded=0;" vertex="1" parent="WIyWlLk6GJQsqaUBKTNV-1">
          <mxGeometry x="289.75" y="260" width="60" height="30" as="geometry" />
        </mxCell>
        <mxCell id="Oma7PS_6oEZFAUc4YZXa-20" value="1" style="text;html=1;strokeColor=none;fillColor=none;align=center;verticalAlign=middle;whiteSpace=wrap;rounded=0;" vertex="1" parent="WIyWlLk6GJQsqaUBKTNV-1">
          <mxGeometry x="287" y="342" width="60" height="30" as="geometry" />
        </mxCell>
        <mxCell id="Oma7PS_6oEZFAUc4YZXa-21" value="1" style="text;html=1;strokeColor=none;fillColor=none;align=center;verticalAlign=middle;whiteSpace=wrap;rounded=0;" vertex="1" parent="WIyWlLk6GJQsqaUBKTNV-1">
          <mxGeometry x="248" y="347" width="60" height="30" as="geometry" />
        </mxCell>
        <mxCell id="Oma7PS_6oEZFAUc4YZXa-22" value="1" style="text;html=1;strokeColor=none;fillColor=none;align=center;verticalAlign=middle;whiteSpace=wrap;rounded=0;" vertex="1" parent="WIyWlLk6GJQsqaUBKTNV-1">
          <mxGeometry x="323" y="200" width="60" height="30" as="geometry" />
        </mxCell>
        <mxCell id="Oma7PS_6oEZFAUc4YZXa-23" value="1&lt;br&gt;" style="text;html=1;strokeColor=none;fillColor=none;align=center;verticalAlign=middle;whiteSpace=wrap;rounded=0;" vertex="1" parent="WIyWlLk6GJQsqaUBKTNV-1">
          <mxGeometry x="390" y="150" width="60" height="30" as="geometry" />
        </mxCell>
        <mxCell id="Oma7PS_6oEZFAUc4YZXa-24" value="1&lt;br&gt;" style="text;html=1;strokeColor=none;fillColor=none;align=center;verticalAlign=middle;whiteSpace=wrap;rounded=0;" vertex="1" parent="WIyWlLk6GJQsqaUBKTNV-1">
          <mxGeometry x="393" y="347" width="60" height="30" as="geometry" />
        </mxCell>
        <mxCell id="Oma7PS_6oEZFAUc4YZXa-26" value="1" style="text;html=1;strokeColor=none;fillColor=none;align=center;verticalAlign=middle;whiteSpace=wrap;rounded=0;" vertex="1" parent="WIyWlLk6GJQsqaUBKTNV-1">
          <mxGeometry x="281" y="105" width="60" height="30" as="geometry" />
        </mxCell>
        <mxCell id="Oma7PS_6oEZFAUc4YZXa-27" value="1" style="text;html=1;strokeColor=none;fillColor=none;align=center;verticalAlign=middle;whiteSpace=wrap;rounded=0;" vertex="1" parent="WIyWlLk6GJQsqaUBKTNV-1">
          <mxGeometry x="281" y="149" width="60" height="30" as="geometry" />
        </mxCell>
        <mxCell id="Oma7PS_6oEZFAUc4YZXa-28" value="1" style="text;html=1;strokeColor=none;fillColor=none;align=center;verticalAlign=middle;whiteSpace=wrap;rounded=0;" vertex="1" parent="WIyWlLk6GJQsqaUBKTNV-1">
          <mxGeometry x="356" y="201" width="60" height="30" as="geometry" />
        </mxCell>
        <mxCell id="Oma7PS_6oEZFAUc4YZXa-30" value="1" style="text;html=1;strokeColor=none;fillColor=none;align=center;verticalAlign=middle;whiteSpace=wrap;rounded=0;" vertex="1" parent="WIyWlLk6GJQsqaUBKTNV-1">
          <mxGeometry x="95" y="521" width="60" height="30" as="geometry" />
        </mxCell>
        <mxCell id="Oma7PS_6oEZFAUc4YZXa-32" style="edgeStyle=none;rounded=0;orthogonalLoop=1;jettySize=auto;html=1;exitX=1;exitY=0.5;exitDx=0;exitDy=0;dashed=1;startArrow=none;startFill=0;endArrow=classic;endFill=1;" edge="1" parent="WIyWlLk6GJQsqaUBKTNV-1" source="Oma7PS_6oEZFAUc4YZXa-11" target="Oma7PS_6oEZFAUc4YZXa-11">
          <mxGeometry relative="1" as="geometry" />
        </mxCell>
        <mxCell id="Oma7PS_6oEZFAUc4YZXa-33" style="edgeStyle=none;rounded=0;orthogonalLoop=1;jettySize=auto;html=1;exitX=1;exitY=0.5;exitDx=0;exitDy=0;dashed=1;startArrow=none;startFill=0;endArrow=classic;endFill=1;" edge="1" parent="WIyWlLk6GJQsqaUBKTNV-1" source="Oma7PS_6oEZFAUc4YZXa-11" target="Oma7PS_6oEZFAUc4YZXa-11">
          <mxGeometry relative="1" as="geometry" />
        </mxCell>
        <mxCell id="Oma7PS_6oEZFAUc4YZXa-10" value="1" style="text;html=1;strokeColor=none;fillColor=none;align=center;verticalAlign=middle;whiteSpace=wrap;rounded=0;" vertex="1" parent="WIyWlLk6GJQsqaUBKTNV-1">
          <mxGeometry x="243" y="59" width="28" height="30" as="geometry" />
        </mxCell>
      </root>
    </mxGraphModel>
  </diagram>
</mxfile>
